<svg xmlns="http://www.w3.org/2000/svg" xmlns:xlink="http://www.w3.org/1999/xlink" width="500" zoomAndPan="magnify" viewBox="0 0 375 374.999991" height="500" preserveAspectRatio="xMidYMid meet" version="1.0"><defs><g/></defs><g fill="#80002F" fill-opacity="1"><g transform="translate(21.555045, 246.004928)"><g><path d="M 91.816406 -129.621094 C 168.441406 -129.621094 92.492188 0 215.363281 0 L 215.363281 -2.699219 C 191.734375 -2.699219 179.917969 -28.355469 166.753906 -58.058594 C 151.226562 -93.503906 139.074219 -132.324219 91.816406 -132.324219 C 79.328125 -132.324219 70.210938 -126.585938 64.472656 -120.847656 C 80.675781 -151.226562 102.617188 -176.878906 128.945312 -206.921875 C 129.960938 -206.921875 156.289062 -233.589844 179.917969 -238.316406 L 123.882812 -238.316406 C 141.4375 -225.488281 106.667969 -185.65625 106.667969 -185.65625 C 70.886719 -143.125 45.570312 -105.65625 37.46875 -43.207031 L 37.46875 -238.316406 L 11.816406 -238.316406 L 11.816406 0 L 37.46875 0 C 37.46875 -44.21875 44.894531 -76.964844 57.386719 -105.65625 C 60.421875 -112.40625 70.886719 -129.621094 91.816406 -129.621094 Z M 91.816406 -129.621094 "/></g></g></g><g fill="#80002F" fill-opacity="1"><g transform="translate(165.561326, 366.856683)"><g><path d="M 37.46875 -140.085938 C 55.359375 -93.503906 146.5 -155.277344 146.5 -87.089844 L 146.5 0 L 172.828125 0 L 172.828125 -238.316406 L 146.5 -238.316406 L 146.5 -105.316406 C 129.285156 -152.238281 37.46875 -89.453125 37.46875 -158.652344 L 37.46875 -238.316406 L 11.816406 -238.316406 L 11.816406 0 L 37.46875 0 Z M 37.46875 -140.085938 "/></g></g></g></svg>